Fly_normalized_Motion_pl14
version=1
nRows=18
nColumns=43
inDegrees=yes
endheader
time		pelvis_tilt		pelvis_list		pelvis_rotation		pelvis_tx		pelvis_ty		pelvis_tz		hip_flexion_r		hip_adduction_r		hip_rotation_r		knee_angle_r		ankle_angle_r		subtalar_angle_r		mtp_angle_r		hip_flexion_l		hip_adduction_l		hip_rotation_l		knee_angle_l		ankle_angle_l		subtalar_angle_l		mtp_angle_l		lumbar_extension		lumbar_bending		lumbar_rotation		neck_flexion		neck_lateral_bending		neck_rotation		arm_flex_r		arm_add_r		arm_rot_r		elbow_flex_r		pro_sup_r		wrist_flex_r		wrist_dev_r		hand_finger_flex_r		arm_flex_l		arm_add_l		arm_rot_l		elbow_flex_l		pro_sup_l		wrist_flex_l		wrist_dev_l		hand_finger_flex_l		
0.900000		-3.150722		-12.753647		85.650917		0.043124		1.808752		1.533715		48.379031		-8.208318		6.391421		-130.426898		-1.943256		-5.695614		23.875702		68.121976		-5.462078		-1.171812		-121.081147		-11.815148		2.857237		22.440161		-34.679916		-3.945701		2.319536		22.079411		4.792784		-4.870632		111.858734		-18.637492		27.974849		68.977608		111.777411		7.372843		9.261044		-16.353492		104.171916		-13.502950		29.546573		48.688324		109.054361		-8.661609		3.727652		-10.887672		
0.904217		-3.133793		-12.477372		86.060084		0.042514		1.809261		1.524717		47.528716		-8.586292		6.047821		-129.485584		-4.416996		-6.937567		22.513221		68.050166		-5.385658		-1.508014		-119.871840		-11.301653		1.062882		21.475375		-34.636913		-3.810360		2.116537		21.613744		4.871731		-5.047954		111.325864		-18.570730		28.135074		68.383907		111.526500		7.472671		9.453374		-16.239721		103.959834		-13.476273		30.361708		47.913125		109.235411		-8.642771		3.942956		-11.045959		
0.908434		-3.038393		-12.015006		86.524683		0.041615		1.810097		1.515488		46.424444		-8.953176		5.530288		-128.434119		-6.594880		-8.504947		16.548193		67.799802		-5.268372		-1.792578		-118.696234		-10.407905		-0.696313		15.903246		-34.822669		-3.560660		1.969330		21.239034		4.851614		-5.184807		110.820848		-18.649128		28.480594		67.865314		110.961867		7.366117		9.718795		-16.152566		103.768660		-13.495284		31.419552		47.179167		108.802869		-8.514155		4.204906		-11.897171		
0.912652		-3.171513		-11.704055		86.960301		0.040371		1.810563		1.506350		45.610982		-9.593399		5.244589		-127.272037		-9.857552		-10.242669		15.344435		67.706023		-4.959071		-2.255994		-117.392895		-10.318602		-2.720071		15.039764		-34.837577		-3.488849		1.646749		20.830603		4.912951		-5.395981		110.193314		-18.686157		28.649695		67.338694		110.815700		7.617385		9.868826		-16.142228		103.412158		-13.488984		32.130800		46.571851		109.213381		-8.349384		4.540615		-12.096041		
0.916869		-3.281757		-11.315752		87.341445		0.039148		1.811019		1.497198		44.751095		-10.129271		5.036236		-125.996697		-13.465830		-12.228619		13.601588		67.555502		-4.704968		-2.688213		-116.129228		-10.237539		-4.475488		13.502943		-34.948234		-3.420125		1.433734		20.457435		4.920095		-5.600740		109.575207		-18.835143		28.920185		66.868016		110.645194		7.915589		10.111550		-16.325219		103.050974		-13.467676		32.871596		45.992945		109.488500		-8.027962		4.932635		-12.448374		
0.921086		-3.437793		-10.989293		87.610734		0.038121		1.811164		1.488345		44.108298		-10.604490		5.052894		-124.689010		-17.453041		-13.924298		12.006890		67.490050		-4.521295		-3.146084		-114.890516		-10.071746		-5.884647		12.091592		-35.022736		-3.460258		1.278685		20.237559		4.947932		-5.838126		108.994561		-18.979294		29.198253		66.324500		110.577634		8.259872		10.422194		-16.568021		102.754540		-13.406280		33.585638		45.341833		109.772819		-7.623046		5.322923		-12.761087		
0.925303		-3.645807		-10.638626		87.757157		0.037491		1.811248		1.479458		43.527489		-11.006762		5.227030		-123.312511		-21.743756		-15.763470		10.122640		67.355144		-4.422030		-3.655268		-113.632929		-9.893068		-7.164593		10.366738		-35.116382		-3.645847		1.205597		19.872140		4.973563		-6.066967		108.335284		-19.264711		29.507598		65.921070		110.597923		8.766733		10.777307		-16.950476		102.411062		-13.372763		34.327727		44.760894		110.077994		-7.075915		5.658976		-13.174070		
0.929520		-3.896876		-10.337929		87.803695		0.037034		1.811095		1.470859		43.150530		-11.315691		5.702663		-121.903079		-26.217295		-17.004991		8.442281		67.265409		-4.392248		-4.216893		-112.362158		-9.718695		-8.180741		9.470505		-35.194705		-3.914719		1.175742		19.653784		4.969135		-6.298632		107.698912		-19.560108		29.873618		65.520974		110.746989		9.254197		11.157538		-17.152835		102.107662		-13.359960		35.051208		44.154409		110.354333		-6.548316		5.945930		-13.399373		
0.933737		-4.103330		-10.057009		87.839823		0.036712		1.810810		1.462426		42.864257		-11.504720		6.268421		-120.451002		-30.403543		-17.690920		5.913265		67.195027		-4.389931		-4.711508		-111.077463		-9.461756		-8.985147		8.326045		-35.279155		-4.164588		1.194793		19.491508		4.952989		-6.509882		107.066166		-19.890925		30.244103		65.107709		111.020726		9.918795		11.555461		-17.489819		101.784595		-13.353589		35.733279		43.586742		110.576944		-5.905057		6.198209		-13.803221		
0.937955		-4.217622		-9.845613		87.925112		0.036349		1.810277		1.454108		42.656124		-11.591329		6.880994		-118.971888		-33.678859		-17.156948		3.523876		67.217094		-4.403557		-5.071433		-109.803390		-9.172841		-9.470517		7.835155		-35.289843		-4.300361		1.215189		19.240908		4.916461		-6.672715		106.407832		-20.212591		30.678326		64.651955		111.345073		10.526154		11.929275		-17.624511		101.389564		-13.378756		36.342052		43.027435		110.735519		-5.325570		6.469421		-14.057785		
0.942172		-4.433465		-9.628732		87.757877		0.036531		1.809809		1.445940		42.592509		-11.604439		7.520165		-117.515212		-35.578135		-17.127809		-2.654749		67.165109		-4.549439		-5.563866		-108.439623		-9.013940		-10.013388		6.486200		-35.364894		-4.691875		1.362834		19.246722		4.918133		-6.816053		105.671137		-20.592421		30.902630		64.361849		112.052945		11.731738		12.283357		-18.225771		101.030887		-13.470068		36.952627		42.588211		110.898040		-4.377694		6.666399		-15.078342		
0.946389		-4.353958		-9.459882		87.640336		0.036707		1.809072		1.437847		42.455980		-11.343232		8.024229		-116.006498		-36.264410		-15.886437		-3.085483		67.240273		-4.879645		-5.716426		-107.174713		-8.900562		-10.039794		6.478039		-35.385617		-4.758854		1.653948		19.145243		4.742877		-6.895243		105.119775		-21.031356		31.699273		63.929306		112.247899		12.245510		12.688305		-18.082623		100.541243		-13.671761		37.501057		42.271424		111.079656		-3.961150		6.856921		-15.016424		
0.950606		-4.281538		-9.357413		87.500910		0.037026		1.808162		1.429886		42.406617		-11.065721		8.378587		-114.555840		-35.662840		-14.891775		-3.021623		67.372209		-5.171397		-5.801505		-105.857821		-8.863932		-9.993956		6.470975		-35.362621		-4.859922		1.923773		19.240388		4.634805		-6.936997		104.444631		-21.424946		32.324559		63.498391		112.405562		12.701439		13.040595		-17.934693		100.015817		-13.865498		37.899203		41.936539		111.231685		-3.692230		6.961752		-14.998890		
0.954823		-4.171120		-9.258945		87.188004		0.037666		1.806944		1.421909		42.325670		-10.587533		8.906801		-113.198725		-32.998508		-12.344055		-1.804691		67.514772		-5.643255		-5.862196		-104.620785		-8.870970		-9.732959		6.478101		-35.313821		-5.035341		2.388206		19.122924		4.519085		-7.004520		103.819611		-21.972152		33.140909		63.183327		112.702752		13.525801		13.617175		-17.651409		99.468516		-14.077001		38.365011		41.624852		111.570184		-3.413432		6.915766		-15.099678		
0.959040		-4.217440		-9.216600		86.963622		0.038026		1.805615		1.413935		42.337751		-10.319666		9.368645		-111.746199		-31.358659		-10.934826		3.585411		67.666068		-5.843929		-5.958063		-103.275031		-9.049021		-9.327414		6.529244		-35.202053		-5.287603		2.587799		18.870351		4.510510		-7.030735		102.980690		-22.460303		33.836095		62.837824		112.781291		13.966726		13.930797		-17.405717		98.734660		-14.365931		38.476793		41.428031		111.903116		-3.259259		6.713151		-15.171173		
0.963258		-4.102335		-9.160410		86.726415		0.038587		1.804102		1.405938		42.318262		-9.911083		9.517395		-110.305480		-29.591609		-10.604554		7.009430		67.783331		-6.184266		-5.938562		-101.952239		-9.186770		-9.074982		6.553625		-35.109488		-5.411142		2.925451		18.684935		4.361903		-6.930596		102.168188		-22.990790		34.629017		62.476409		112.808308		14.475517		14.258167		-17.131597		98.047474		-14.741287		38.831792		41.282971		112.227017		-3.173609		6.618739		-15.201674		
0.967475		-3.962218		-9.074423		86.518451		0.039016		1.802502		1.398036		42.275324		-9.478026		9.585922		-108.873628		-27.781770		-11.058136		7.623953		67.856072		-6.449207		-5.822079		-100.604653		-9.419506		-8.657818		6.552617		-35.077516		-5.473279		3.222562		18.564260		4.215935		-6.857676		101.411642		-23.469209		35.465859		61.997837		112.762783		15.003775		14.593109		-16.856683		97.344428		-15.185829		39.197770		41.158455		112.433002		-3.299179		6.519363		-15.222657		
0.971692		-3.974685		-8.980268		86.350160		0.039051		1.800799		1.390125		42.327352		-9.263567		9.755178		-107.442756		-26.717549		-12.091885		7.837288		67.817539		-6.521246		-5.834917		-99.162294		-9.644907		-8.244458		6.569936		-35.057470		-5.605008		3.371941		18.419046		4.073728		-6.788871		100.570860		-23.938717		36.226379		61.488090		112.667100		15.448116		14.842347		-16.620429		96.581102		-15.638013		39.476226		41.022319		112.588756		-3.419016		6.420959		-15.223057		
